<?xml version="1.0" encoding="UTF-8" standalone="no"?>
<!DOCTYPE svg PUBLIC "-//W3C//DTD SVG 1.1//EN"
 "http://www.w3.org/Graphics/SVG/1.1/DTD/svg11.dtd">
<!-- Generated by graphviz version 8.0.5 (20230430.1635)
 -->
<!-- Title: classes_sentimentapp Pages: 1 -->
<svg width="607pt" height="159pt"
 viewBox="0.00 0.00 606.88 159.00" xmlns="http://www.w3.org/2000/svg" xmlns:xlink="http://www.w3.org/1999/xlink">
<g id="graph0" class="graph" transform="scale(1 1) rotate(0) translate(4 155)">
<title>classes_sentimentapp</title>
<polygon fill="white" stroke="none" points="-4,4 -4,-155 602.88,-155 602.88,4 -4,4"/>
<!-- NewsSentiment.DB_interaction -->
<g id="node1" class="node">
<title>NewsSentiment.DB_interaction</title>
<polygon fill="none" stroke="black" points="0,-0.5 0,-150.5 217,-150.5 217,-0.5 0,-0.5"/>
<text text-anchor="middle" x="108.5" y="-133.2" font-family="Times New Roman,serif" font-size="14.00">DB_interaction</text>
<polyline fill="none" stroke="black" points="0,-126.75 217,-126.75"/>
<text text-anchor="start" x="8" y="-109.45" font-family="Times New Roman,serif" font-size="14.00">connection</text>
<text text-anchor="start" x="8" y="-93.7" font-family="Times New Roman,serif" font-size="14.00">cursor : NoneType</text>
<polyline fill="none" stroke="black" points="0,-87.25 217,-87.25"/>
<text text-anchor="start" x="8" y="-69.95" font-family="Times New Roman,serif" font-size="14.00">getCityIndexesDict()</text>
<text text-anchor="start" x="8" y="-54.2" font-family="Times New Roman,serif" font-size="14.00">getCityLocations()</text>
<text text-anchor="start" x="8" y="-38.45" font-family="Times New Roman,serif" font-size="14.00">getLatestSentiment()</text>
<text text-anchor="start" x="8" y="-22.7" font-family="Times New Roman,serif" font-size="14.00">isTodayInDB()</text>
<text text-anchor="start" x="8" y="-6.95" font-family="Times New Roman,serif" font-size="14.00">storeLatestSentiment(sentimentDict)</text>
</g>
<!-- NewsSentiment.MarketSentiment -->
<g id="node2" class="node">
<title>NewsSentiment.MarketSentiment</title>
<polygon fill="none" stroke="black" points="235.12,-24.12 235.12,-126.88 437.88,-126.88 437.88,-24.12 235.12,-24.12"/>
<text text-anchor="middle" x="336.5" y="-109.58" font-family="Times New Roman,serif" font-size="14.00">MarketSentiment</text>
<polyline fill="none" stroke="black" points="235.12,-103.12 437.88,-103.12"/>
<text text-anchor="start" x="243.12" y="-85.83" font-family="Times New Roman,serif" font-size="14.00">newsapi_key</text>
<text text-anchor="start" x="243.12" y="-70.08" font-family="Times New Roman,serif" font-size="14.00">sentiment_classifier</text>
<polyline fill="none" stroke="black" points="235.12,-63.62 437.88,-63.62"/>
<text text-anchor="start" x="243.12" y="-46.33" font-family="Times New Roman,serif" font-size="14.00">addCityIndexes(CityIndexesDict)</text>
<text text-anchor="start" x="243.12" y="-30.57" font-family="Times New Roman,serif" font-size="14.00">getSentiment()</text>
</g>
<!-- NewsSentiment.SentimentMap -->
<g id="node3" class="node">
<title>NewsSentiment.SentimentMap</title>
<polygon fill="none" stroke="black" points="456.12,-24.12 456.12,-126.88 598.88,-126.88 598.88,-24.12 456.12,-24.12"/>
<text text-anchor="middle" x="527.5" y="-109.58" font-family="Times New Roman,serif" font-size="14.00">SentimentMap</text>
<polyline fill="none" stroke="black" points="456.12,-103.12 598.88,-103.12"/>
<text text-anchor="start" x="464.12" y="-85.83" font-family="Times New Roman,serif" font-size="14.00">fig : NoneType, Figure</text>
<text text-anchor="start" x="464.12" y="-70.08" font-family="Times New Roman,serif" font-size="14.00">map_sentiment : dict</text>
<text text-anchor="start" x="464.12" y="-54.33" font-family="Times New Roman,serif" font-size="14.00">sentimentDf</text>
<polyline fill="none" stroke="black" points="456.12,-47.88 598.88,-47.88"/>
<text text-anchor="middle" x="527.5" y="-30.57" font-family="Times New Roman,serif" font-size="14.00"> </text>
</g>
</g>
</svg>
